<svg xmlns="http://www.w3.org/2000/svg"  viewBox="0 0 161 66" fill="none">
  <path d="M99.3457 42.2158V64.5978H104.116C104.144 64.4834 104.178 64.3916 104.186 64.2998C104.197 64.1467 104.19 63.9904 104.19 63.8374C104.19 56.8885 104.19 49.938 104.189 42.9892C104.189 42.7314 104.155 42.4736 104.136 42.2174H99.3457V42.2158Z" fill="#0000F2"/>
  <path d="M102.573 33.1824C102.489 32.9633 102.432 32.7845 102.355 32.6137C99.6162 26.5961 95.9347 21.2229 91.2914 16.5168C85.662 10.8117 79.095 6.5293 71.6016 3.67757C65.671 1.42036 59.5212 0.241005 53.1846 0.0251116C50.9612 -0.0506122 48.7411 0.0670013 46.529 0.266783C44.5118 0.448842 42.5092 0.758182 40.5291 1.18513C39.3997 1.42842 38.2767 1.71359 37.157 1.99876C36.9685 2.0471 36.7171 2.15343 36.6495 2.30327C36.4642 2.70928 36.3627 3.15395 36.208 3.64535C49.2824 -0.100558 61.9815 0.688903 74.2697 6.26668C86.5836 11.8557 95.4481 20.9974 101.169 33.184H102.573V33.1824Z" fill="#0000F2"/>
  <path d="M42.7667 63.1829H35.552C34.334 63.1829 33.1176 63.191 31.8996 63.1797C30.7121 63.1684 29.5215 63.2297 28.2761 63.1346C28.2761 60.0912 28.2729 57.1089 28.2793 54.0478H29.0414C32.8485 54.0478 36.6556 54.0478 40.4628 54.0462C40.7045 54.0462 40.9461 54.0123 41.1926 53.9946V52.6026H40.4177C36.6299 52.6026 32.8421 52.6026 29.0543 52.5993C28.8126 52.5993 28.5709 52.5623 28.347 52.5446C28.2278 51.8115 28.2568 44.1263 28.3889 43.6269H42.6249V42.2188H26.752V64.5991H42.7877" fill="#0000F2"/>
  <path d="M13.8904 63.2042C12.616 63.1962 11.34 63.2026 10.0656 63.2026H2.43359" fill="#0000F2"/>
  <path d="M50.333 61.4477C50.4136 61.5106 50.4748 61.5573 50.5344 61.6072C52.6998 63.4649 55.1407 64.67 58.0343 64.8988C59.4988 65.0148 60.9359 64.9616 62.3247 64.496C64.7511 63.6824 66.3768 62.1099 66.6942 59.4741C66.9358 57.4682 66.3155 55.7781 64.611 54.5714C63.7184 53.9398 62.7275 53.5032 61.6835 53.2116C60.4397 52.8652 59.1766 52.5897 57.9247 52.2723C56.7631 51.9774 55.6208 51.6262 54.5848 50.9962C53.8743 50.5645 53.2782 50.0118 53.0027 49.2111C52.384 47.4098 52.7964 45.6037 54.4221 44.4163C55.2986 43.7767 56.2942 43.3997 57.3689 43.3111C60.0546 43.0887 62.5052 43.7123 64.6255 45.4394C64.756 45.5457 64.8977 45.6376 65.0653 45.7568C65.3891 45.3556 65.6888 44.9818 66.0143 44.5774C65.9353 44.4856 65.9047 44.4357 65.8612 44.4002C65.7098 44.2794 65.5567 44.1618 65.4004 44.0474C62.8178 42.1623 59.9225 41.5292 56.7921 41.9819C55.102 42.2252 53.6471 42.9679 52.4807 44.2633C50.5441 46.4174 50.5038 50.7223 53.8904 52.4511C54.6766 52.8523 55.4967 53.2196 56.341 53.471C57.6138 53.8496 58.9236 54.1057 60.2141 54.4264C61.3033 54.697 62.3602 55.0628 63.3301 55.6428C63.9874 56.0359 64.5771 56.5192 64.8494 57.2588C65.4697 58.9376 65.2506 60.4875 64.0213 61.8344C63.4203 62.4917 62.6534 62.8929 61.8156 63.17C60.2866 63.6743 58.7303 63.6067 57.1755 63.3424C55.2422 63.0138 53.5617 62.1405 52.0763 60.8758C51.8314 60.6663 51.5833 60.4601 51.3206 60.241" fill="#0000F2"/>
  <path d="M91.2563 42.2207H74.0283V43.6288C76.6335 43.6369 79.2081 43.6256 81.8617 43.6353C81.8617 43.9849 81.8617 44.2507 81.8617 44.5166C81.8617 50.945 81.8617 57.3735 81.8633 63.8004C81.8633 64.063 81.8891 64.324 81.9036 64.6075H83.3874C83.4036 64.3997 83.4293 64.2128 83.431 64.0259C83.4358 63.3895 83.4326 62.7515 83.4326 62.1151C83.4326 56.2086 83.4326 50.3006 83.4326 44.3941C83.4326 44.1525 83.4519 43.9124 83.4648 43.6337C84.1769 43.6337 84.8117 43.6337 85.4465 43.6337H87.3589C88.0163 43.6337 88.672 43.6353 89.3293 43.6337C89.9593 43.6305 90.5893 43.6224 91.2547 43.6176V42.2239L91.2563 42.2207Z" fill="#0000F2"/>
  <path d="M2.43812 33.211C6.58681 24.2353 12.656 16.8756 20.8003 11.1238C20.412 10.9514 20.1124 10.8306 19.824 10.6872C19.4953 10.5245 19.2359 10.5648 18.9314 10.8C17.2784 12.0728 15.6495 13.373 14.1173 14.7924C8.64585 19.8578 4.36988 25.782 1.28293 32.5633C1.19915 32.7486 1.12826 32.9403 1.0332 33.1723C1.2201 33.1901 1.33126 33.2078 1.44243 33.2094C1.76788 33.2142 2.09495 33.2094 2.43812 33.2094V33.211Z" fill="#0000F2"/>
  <path d="M124.278 41.7695C127.665 41.8082 130.608 42.9199 133.004 45.3366C134.85 47.2007 135.872 49.4708 136.136 52.0808C136.482 55.4884 135.563 58.5109 133.3 61.0839C131.388 63.259 128.957 64.5173 126.086 64.8878C122.491 65.3518 119.198 64.6107 116.372 62.2617C113.952 60.2493 112.633 57.6425 112.368 54.5024C112.056 50.7855 113.234 47.6132 115.903 45.0208C117.672 43.3017 119.818 42.298 122.261 41.9516C122.928 41.8565 123.605 41.8275 124.276 41.7695H124.278ZM131.111 53.4664C131.137 49.2275 127.987 46.3468 124.475 46.2646C122.619 46.2211 120.974 46.7528 119.609 48.0401C116.864 50.6292 116.723 55.258 119.011 58.0662C121.494 61.1129 126.025 61.274 128.649 58.9943C130.325 57.5394 131.084 55.6608 131.111 53.4664Z" fill="#0000F2"/>
  <path d="M142.523 42.2178H160.989C161.015 42.7059 160.986 46.0942 160.981 46.6613H154.227C154.215 48.2048 154.223 49.6854 154.221 51.1645C154.221 52.6515 154.221 54.137 154.221 55.6241V60.0837C154.221 61.5676 154.221 63.0515 154.221 64.5208C153.743 64.5434 150.206 64.5434 149.4 64.5659V46.6919C148.603 46.6226 147.857 46.6678 147.114 46.6581C146.362 46.65 145.608 46.6565 144.854 46.6565H142.529C142.508 45.1662 142.519 43.7274 142.523 42.2178Z" fill="#0000F2"/>
  <path d="M34.7864 2.59341C32.2795 9.24582 29.8225 15.7726 27.3639 22.2977C27.3284 22.2977 27.293 22.2977 27.2576 22.2993C27.1625 21.9175 27.0626 21.5372 26.974 21.1538C26.2248 17.9428 25.4692 14.7318 24.7361 11.5175C24.6394 11.0954 24.4332 10.8699 24.0417 10.6942C20.871 9.27804 17.7115 7.83929 14.5473 6.40537C14.3555 6.31837 14.1686 6.22331 13.9785 6.07831C20.8726 4.88123 27.7683 3.74538 34.788 2.5918L34.7864 2.59341Z" fill="#0000F2"/>
  <path d="M99.3457 42.2155H104.192C104.192 42.4684 104.189 42.7294 104.189 42.9872C104.192 49.9361 104.19 56.8865 104.19 63.8354C104.19 63.9901 104.197 64.1447 104.186 64.2978C104.179 64.3913 104.189 64.4831 104.176 64.5959H99.3457V42.2139V42.2155Z" fill="#0000F2"/>
  <path d="M102.572 33.1821H101.169C95.4478 20.9954 86.5833 11.8538 74.2693 6.26473C61.9811 0.68856 49.2821 -0.1009 36.2061 3.6434C36.3607 3.152 36.4638 2.70893 36.6475 2.30131C36.7152 2.15148 36.9665 2.04514 37.155 1.99681C38.2764 1.71164 39.3977 1.42808 40.5271 1.18318C42.5072 0.756228 44.5099 0.446889 46.527 0.26483C48.7391 0.0650481 50.9593 -0.0525653 53.1827 0.0231584C59.5193 0.23744 65.669 1.41841 71.5996 3.67562C79.0931 6.52734 85.6601 10.8098 91.2894 16.5148C95.9327 21.221 99.6158 26.5941 102.353 32.6117C102.43 32.7825 102.488 32.963 102.571 33.1805L102.572 33.1821Z" fill="#0000F2"/>
  <path d="M26.752 42.2188H42.6249V43.6269H28.3889C28.2568 44.1263 28.2261 51.8131 28.347 52.5446C28.5709 52.5623 28.8126 52.5993 29.0543 52.5993C32.8421 52.6026 36.6299 52.6026 40.4177 52.6026H41.1926C41.1926 53.094 41.1926 53.5451 41.1926 54.0284C40.9477 54.0461 40.7061 54.0445 40.4644 54.0445C36.6573 54.0478 32.8501 54.0462 29.043 54.0462H28.2809C28.2745 57.1073 28.2777 60.0895 28.2777 63.133C29.5247 63.2281 30.7138 63.1668 31.9012 63.1781C33.1192 63.1894 34.3356 63.1813 35.5536 63.1813H39.1481C40.3452 63.1813 41.5809 63.1813 42.8086 63.1813C42.8032 63.6292 42.7963 64.1018 42.7877 64.5991H26.752V42.2188Z" fill="#0000F2"/>
  <path d="M2.40467 63.2029H10.0367C11.3111 63.2029 12.5871 63.1964 13.8615 63.2045C15.1295 63.2125 16.4007 63.1996 17.6815 63.2319V64.5933H0.0556194C-0.0700497 64.0922 0.0153409 63.7007 0.331125 63.2899C5.2145 56.9613 10.0818 50.6198 14.9522 44.2816C15.0956 44.0705 15.2181 43.845 15.4195 43.5679C14.0919 43.5711 12.8562 43.5953 11.6317 43.5791C10.4153 43.5646 9.19725 43.5759 7.98083 43.5759H4.27198C3.05718 43.5759 1.74571 43.5614 0.526073 43.5614C0.545407 43.0217 0.534129 42.7687 0.555074 42.2129H17.6429C17.8104 42.7268 17.6638 43.128 17.3464 43.5405C12.4663 49.8723 7.59899 56.2121 2.72851 62.552C2.60123 62.7179 2.47878 62.8855 2.35472 63.053C2.20811 63.2464 2.19683 63.2077 2.40628 63.2029H2.40467Z" fill="#0000F2"/>
  <path d="M66.0143 44.5808C65.6888 44.9852 65.3891 45.3573 65.0653 45.7601C64.8977 45.6393 64.756 45.5491 64.6255 45.4427C62.5052 43.7172 60.053 43.0921 57.3689 43.3144C56.2942 43.403 55.2986 43.78 54.4221 44.4197C52.7964 45.6071 52.384 47.4132 53.0027 49.2144C53.2782 50.0168 53.8743 50.5678 54.5848 50.9996C55.6192 51.6279 56.7615 51.9808 57.9247 52.2756C59.1766 52.593 60.4397 52.8685 61.6835 53.2149C62.7275 53.5049 63.7184 53.9431 64.611 54.5747C66.3155 55.7798 66.9358 57.4715 66.6942 59.4774C66.3768 62.1132 64.7511 63.6841 62.3247 64.4993C60.9359 64.965 59.4988 65.0197 58.0343 64.9021C55.1407 64.6717 52.6998 63.4682 50.5344 61.6106C50.4764 61.5606 50.4136 61.5139 50.333 61.4511C50.6504 61.0128 50.9501 60.6455 51.3222 60.2491C51.5833 60.4683 51.8314 60.6761 52.0779 60.8839C53.5633 62.1487 55.2438 63.0235 57.1771 63.3506C58.7303 63.6148 60.2866 63.6825 61.8172 63.1782C62.655 62.9011 63.4219 62.5015 64.0229 61.8426C65.2538 60.494 65.4713 58.9457 64.851 57.2669C64.5771 56.5274 63.9891 56.0424 63.3317 55.6509C62.3634 55.0709 61.3065 54.7052 60.2158 54.4345C58.9252 54.1139 57.6154 53.8577 56.3426 53.4791C55.4983 53.2278 54.6783 52.862 53.892 52.4593C50.5038 50.7305 50.5441 46.4255 52.4823 44.2714C53.6487 42.9745 55.1036 42.2333 56.7937 41.9901C59.9258 41.5389 62.821 42.1705 65.402 44.0555C65.5583 44.1699 65.7114 44.2875 65.8628 44.4084C65.9063 44.4438 65.9369 44.4938 66.0159 44.5856L66.0143 44.5808Z" fill="#0000F2"/>
  <path d="M91.2556 42.221V43.6146C90.5902 43.6211 89.9603 43.6291 89.3303 43.6307C88.673 43.634 88.0172 43.6307 87.3599 43.6307H85.4475C84.8127 43.6307 84.1763 43.6307 83.4658 43.6307C83.4529 43.9095 83.4335 44.1511 83.4335 44.3912C83.4319 50.2977 83.4335 56.2057 83.4335 62.1122C83.4335 62.7486 83.4368 63.3866 83.4319 64.023C83.4319 64.1476 83.4319 64.3415 83.4319 64.6046H81.8675C81.8595 64.2647 81.8643 64.06 81.8643 63.7974C81.8627 57.369 81.8627 50.9405 81.8627 44.5137C81.8627 44.2478 81.8627 43.9836 81.8627 43.6324C79.2091 43.6243 76.6345 43.634 74.0293 43.6259V42.2178H91.2572L91.2556 42.221Z" fill="#0000F2"/>
  <path d="M2.43812 33.2107C2.09495 33.2107 1.7695 33.2139 1.44243 33.2107C1.33126 33.2107 1.2201 33.1914 1.0332 33.1737C1.12826 32.9416 1.19754 32.7499 1.28293 32.5646C4.36988 25.7817 8.64585 19.8592 14.1173 14.7953C15.6511 13.3759 17.2784 12.0757 18.9314 10.8029C19.2359 10.5677 19.4953 10.5274 19.824 10.6902C20.1124 10.8335 20.4104 10.9544 20.8003 11.1268C12.6544 16.8753 6.58681 24.235 2.43812 33.2107Z" fill="#0000F2"/>
</svg>