<svg  viewBox="0 0 288 116" fill="none" xmlns="http://www.w3.org/2000/svg">
<path d="M177.242 75.3164V115.248H185.753C185.802 115.044 185.863 114.88 185.877 114.716C185.897 114.443 185.886 114.164 185.886 113.891C185.886 101.494 185.886 89.0935 185.883 76.6961C185.883 76.2362 185.822 75.7763 185.788 75.3193H177.242V75.3164Z" fill="white"/>
<path d="M182.999 59.199C182.85 58.8081 182.749 58.489 182.611 58.1844C177.725 47.4484 171.157 37.8621 162.872 29.4659C152.829 19.2876 141.113 11.6473 127.744 6.5596C117.163 2.53253 106.192 0.428443 94.8865 0.0432699C90.9198 -0.0918282 86.9588 0.118005 83.0122 0.474434C79.4134 0.799245 75.8405 1.35114 72.3078 2.11286C70.2929 2.5469 68.2894 3.05567 66.2917 3.56445C65.9554 3.65068 65.5069 3.84039 65.3862 4.10771C65.0557 4.83207 64.8746 5.62541 64.5986 6.50211C87.9246 -0.180936 110.581 1.22754 132.504 11.1788C154.473 21.1502 170.289 37.4597 180.496 59.2019H182.999V59.199Z" fill="white"/>
<path d="M76.3003 112.724H63.4286C61.2556 112.724 59.0854 112.739 56.9123 112.719C54.7939 112.698 52.6697 112.808 50.4477 112.638C50.4477 107.208 50.442 101.888 50.4535 96.4263H51.8131C58.6054 96.4263 65.3976 96.4263 72.1899 96.4235C72.6211 96.4235 73.0522 96.3631 73.492 96.3315V93.848H72.1094C65.3516 93.848 58.5939 93.848 51.8361 93.8422C51.4049 93.8422 50.9737 93.7761 50.5742 93.7445C50.3615 92.4366 50.4132 78.7256 50.6489 77.8345H76.0474V75.3223H47.7285V115.251H76.3377" fill="white"/>
<path d="M24.7819 112.761C22.5082 112.747 20.2316 112.758 17.958 112.758H4.3418" fill="white"/>
<path d="M89.7988 109.627C89.9425 109.739 90.0518 109.823 90.1581 109.912C94.0214 113.226 98.3761 115.376 103.539 115.784C106.151 115.991 108.715 115.896 111.193 115.066C115.522 113.614 118.422 110.809 118.989 106.106C119.42 102.527 118.313 99.5121 115.272 97.3592C113.68 96.2324 111.912 95.4534 110.049 94.9332C107.83 94.3152 105.577 93.8236 103.343 93.2574C101.271 92.7313 99.2327 92.1047 97.3844 90.9808C96.1168 90.2105 95.0533 89.2245 94.5618 87.7959C93.458 84.5823 94.1938 81.3601 97.0941 79.2416C98.6578 78.1005 100.434 77.4279 102.351 77.2698C107.143 76.8731 111.515 77.9855 115.298 81.0669C115.531 81.2566 115.784 81.4205 116.083 81.6332C116.66 80.9174 117.195 80.2506 117.776 79.5291C117.635 79.3652 117.58 79.2761 117.503 79.2129C117.232 78.9973 116.959 78.7875 116.68 78.5834C112.073 75.2203 106.907 74.0907 101.322 74.8984C98.3071 75.3324 95.7115 76.6575 93.6304 78.9686C90.1754 82.8117 90.1035 90.4922 96.1456 93.5764C97.5483 94.2922 99.0114 94.9475 100.518 95.3959C102.788 96.0714 105.125 96.5285 107.428 97.1005C109.371 97.5834 111.256 98.2359 112.987 99.2707C114.16 99.972 115.212 100.834 115.697 102.154C116.804 105.149 116.413 107.914 114.22 110.317C113.148 111.49 111.78 112.206 110.285 112.7C107.557 113.6 104.78 113.479 102.007 113.008C98.5572 112.421 95.5592 110.863 92.909 108.607C92.472 108.233 92.0294 107.865 91.5609 107.474" fill="white"/>
<path d="M162.809 75.3242H132.072V77.8365C136.72 77.8508 141.314 77.8307 146.048 77.848C146.048 78.4717 146.048 78.946 146.048 79.4203C146.048 90.8893 146.048 102.358 146.051 113.824C146.051 114.293 146.097 114.759 146.122 115.264H148.77C148.799 114.894 148.845 114.56 148.847 114.227C148.856 113.091 148.85 111.953 148.85 110.818C148.85 100.28 148.85 89.7395 148.85 79.2018C148.85 78.7707 148.885 78.3424 148.908 77.8451C150.178 77.8451 151.311 77.8451 152.443 77.8451H155.855C157.028 77.8451 158.198 77.848 159.371 77.8451C160.495 77.8393 161.619 77.825 162.806 77.8163V75.33L162.809 75.3242Z" fill="white"/>
<path d="M4.35025 59.2506C11.7519 43.2372 22.5799 30.1068 37.1101 19.8451C36.4174 19.5375 35.8827 19.3219 35.3682 19.0661C34.7818 18.7758 34.3191 18.8476 33.7758 19.2673C30.8266 21.5381 27.9206 23.8578 25.187 26.3901C15.4254 35.4274 7.79669 45.9966 2.28929 58.0951C2.13982 58.4257 2.01334 58.7677 1.84375 59.1816C2.17718 59.2133 2.37552 59.2449 2.57386 59.2477C3.15449 59.2564 3.738 59.2477 4.35025 59.2477V59.2506Z" fill="white"/>
<path d="M221.723 74.5195C227.765 74.5885 233.017 76.5719 237.291 80.8835C240.585 84.2092 242.408 88.2593 242.879 92.9159C243.497 98.9953 241.856 104.388 237.82 108.978C234.408 112.859 230.071 115.104 224.948 115.765C218.535 116.593 212.66 115.27 207.618 111.079C203.301 107.489 200.947 102.838 200.475 97.2361C199.918 90.6048 202.019 84.9451 206.782 80.3201C209.938 77.2531 213.767 75.4623 218.124 74.8443C219.314 74.6748 220.522 74.623 221.72 74.5195H221.723ZM233.914 95.3879C233.96 87.8253 228.34 82.6858 222.074 82.5392C218.763 82.4616 215.828 83.4101 213.393 85.7068C208.495 90.326 208.245 98.5843 212.327 103.594C216.756 109.03 224.839 109.317 229.522 105.25C232.511 102.654 233.865 99.3029 233.914 95.3879Z" fill="white"/>
<path d="M254.273 75.3203H287.22C287.266 76.1913 287.214 82.2362 287.206 83.248H275.156C275.133 86.0017 275.147 88.6433 275.144 91.282C275.144 93.9351 275.144 96.5853 275.144 99.2384V107.195C275.144 109.842 275.144 112.49 275.144 115.111C274.291 115.151 267.981 115.151 266.544 115.192V83.3026C265.121 83.179 263.79 83.2595 262.465 83.2422C261.123 83.2279 259.778 83.2394 258.433 83.2394H254.285C254.247 80.5805 254.268 78.0137 254.273 75.3203Z" fill="white"/>
<path d="M62.063 4.62592C57.5903 16.4944 53.2068 28.1388 48.8205 39.7802C48.7572 39.7802 48.694 39.7802 48.6307 39.7831C48.4612 39.1018 48.2829 38.4235 48.1248 37.7393C46.7882 32.0106 45.4401 26.2819 44.1323 20.5474C43.9598 19.7943 43.5919 19.3919 42.8934 19.0786C37.2365 16.5519 31.5998 13.9851 25.9544 11.4268C25.6123 11.2716 25.2789 11.102 24.9397 10.8433C37.2394 8.70761 49.5419 6.68114 62.0658 4.62305L62.063 4.62592Z" fill="white"/>
<path d="M177.242 75.3154H185.888C185.888 75.7667 185.883 76.2323 185.883 76.6922C185.888 89.0896 185.886 101.49 185.886 113.887C185.886 114.163 185.897 114.439 185.877 114.712C185.865 114.879 185.883 115.043 185.86 115.244H177.242V75.3125V75.3154Z" fill="white"/>
<path d="M182.999 59.1999H180.496C170.288 37.4578 154.473 21.1483 132.504 11.1769C110.581 1.22846 87.9246 -0.180014 64.5957 6.50016C64.8716 5.62346 65.0556 4.83299 65.3833 4.10576C65.504 3.83844 65.9524 3.64873 66.2887 3.56249C68.2893 3.05372 70.29 2.54782 72.3049 2.11091C75.8376 1.34918 79.4105 0.797292 83.0093 0.472481C86.9559 0.116052 90.9169 -0.0937814 94.8836 0.0413168C106.189 0.423616 117.16 2.53057 127.741 6.55765C141.11 11.6454 152.826 19.2856 162.87 29.464C171.154 37.8602 177.725 47.4464 182.608 58.1824C182.746 58.4871 182.85 58.809 182.996 59.1971L182.999 59.1999Z" fill="white"/>
<path d="M47.7285 75.3223H76.0474V77.8345H50.6489C50.4132 78.7256 50.3586 92.4395 50.5742 93.7445C50.9737 93.7761 51.4049 93.8422 51.8361 93.8422C58.5939 93.848 65.3516 93.848 72.1094 93.848H73.492C73.492 94.7247 73.492 95.5295 73.492 96.3918C73.0551 96.4234 72.6239 96.4206 72.1928 96.4206C65.4005 96.4263 58.6082 96.4235 51.816 96.4235H50.4563C50.4448 101.885 50.4506 107.205 50.4506 112.635C52.6754 112.805 54.7967 112.696 56.9152 112.716C59.0883 112.736 61.2585 112.721 63.4315 112.721H69.8444C71.9801 112.721 74.1848 112.721 76.3751 112.721C76.3655 113.521 76.353 114.364 76.3377 115.251H47.7285V75.3223Z" fill="white"/>
<path d="M4.29015 112.759H17.9063C20.18 112.759 22.4565 112.747 24.7302 112.761C26.9924 112.776 29.2603 112.753 31.5455 112.81V115.239H0.0992303C-0.124975 114.345 0.0273695 113.647 0.590758 112.914C9.30315 101.623 17.9868 90.3093 26.6762 79.0013C26.932 78.6248 27.1505 78.2223 27.5098 77.7279C25.1413 77.7337 22.9366 77.7768 20.752 77.7481C18.5818 77.7222 16.4087 77.7423 14.2385 77.7423H7.62161C5.45429 77.7423 3.11451 77.7164 0.938564 77.7164C0.973057 76.7535 0.952936 76.3022 0.990303 75.3105H31.4765C31.7754 76.2275 31.5139 76.9432 30.9476 77.6791C22.241 88.9756 13.5573 100.286 4.86791 111.597C4.64083 111.893 4.42237 112.192 4.20104 112.491C3.93947 112.836 3.91935 112.767 4.29302 112.759H4.29015Z" fill="white"/>
<path d="M117.776 79.5369C117.195 80.2584 116.66 80.9224 116.083 81.641C115.784 81.4254 115.531 81.2645 115.298 81.0747C111.515 77.9962 107.14 76.8809 102.351 77.2776C100.434 77.4357 98.6578 78.1083 97.0941 79.2495C94.1938 81.3679 93.458 84.5902 94.5618 87.8038C95.0533 89.2353 96.1168 90.2183 97.3844 90.9887C99.2298 92.1097 101.268 92.7392 103.343 93.2652C105.577 93.8315 107.83 94.323 110.049 94.941C111.912 95.4584 113.68 96.2402 115.272 97.367C118.313 99.5171 119.42 102.535 118.989 106.114C118.422 110.816 115.522 113.619 111.193 115.073C108.715 115.904 106.151 116.002 103.539 115.792C98.3761 115.381 94.0214 113.234 90.1581 109.92C90.0547 109.831 89.9425 109.747 89.7988 109.635C90.3651 108.853 90.8997 108.198 91.5637 107.491C92.0294 107.882 92.472 108.252 92.9118 108.623C95.5621 110.88 98.5601 112.441 102.009 113.024C104.78 113.495 107.557 113.616 110.288 112.716C111.782 112.222 113.151 111.509 114.223 110.334C116.419 107.928 116.807 105.165 115.7 102.17C115.212 100.851 114.162 99.9856 112.99 99.2871C111.262 98.2523 109.377 97.5998 107.431 97.1169C105.128 96.5449 102.791 96.0879 100.52 95.4124C99.0142 94.964 97.5512 94.3115 96.1484 93.5929C90.1035 90.5086 90.1754 82.8281 93.6333 78.985C95.7144 76.6711 98.31 75.3489 101.325 74.9148C106.913 74.11 112.079 75.2368 116.683 78.5999C116.962 78.8039 117.235 79.0138 117.505 79.2294C117.583 79.2926 117.638 79.3817 117.779 79.5455L117.776 79.5369Z" fill="white"/>
<path d="M162.81 75.3261V77.8124C161.622 77.8239 160.499 77.8383 159.375 77.8412C158.202 77.8469 157.032 77.8412 155.859 77.8412H152.447C151.315 77.8412 150.179 77.8412 148.912 77.8412C148.889 78.3385 148.854 78.7696 148.854 79.1979C148.851 89.7356 148.854 100.276 148.854 110.814C148.854 111.949 148.86 113.087 148.851 114.223C148.851 114.445 148.851 114.791 148.851 115.261H146.06C146.046 114.654 146.055 114.289 146.055 113.82C146.052 102.351 146.052 90.8825 146.052 79.4164C146.052 78.9421 146.052 78.4707 146.052 77.8441C141.317 77.8297 136.724 77.8469 132.076 77.8326V75.3203H162.812L162.81 75.3261Z" fill="white"/>
<path d="M4.35025 59.2527C3.738 59.2527 3.15736 59.2584 2.57386 59.2527C2.37552 59.2527 2.17718 59.2182 1.84375 59.1866C2.01334 58.7727 2.13694 58.4306 2.28929 58.1C7.79669 45.9987 15.4254 35.4323 25.187 26.398C27.9234 23.8656 30.8266 21.5459 33.7758 19.2751C34.3191 18.8555 34.7818 18.7836 35.3682 19.0739C35.8827 19.3297 36.4145 19.5453 37.1101 19.8529C22.577 30.1088 11.7519 43.2392 4.35025 59.2527Z" fill="white"/>
</svg>
